/* XPM */
static char * grxrobot_xpm[] = {
"48 48 256 2",
"  	c #035AA6",
". 	c #065BA7",
"+ 	c #005EA8",
"@ 	c #005EAF",
"# 	c #0A5CA8",
"$ 	c #0060AA",
"% 	c #0060AB",
"& 	c #0E5DA9",
"* 	c #0061AC",
"= 	c #0062AD",
"- 	c #115EAA",
"; 	c #0063AE",
"> 	c #0064AF",
", 	c #145FAB",
"' 	c #0065B0",
") 	c #0066AB",
"! 	c #0266B1",
"~ 	c #0267AC",
"{ 	c #0668AD",
"] 	c #1C64AA",
"^ 	c #0A69AE",
"/ 	c #1E65AB",
"( 	c #0E6AAF",
"_ 	c #2066AC",
": 	c #116BB0",
"< 	c #2267AD",
"[ 	c #146CB1",
"} 	c #2468AE",
"| 	c #166DB2",
"1 	c #156EAD",
"2 	c #196EB4",
"3 	c #286CAC",
"4 	c #1B6FB5",
"5 	c #1D70B6",
"6 	c #1C71B0",
"7 	c #1F71B7",
"8 	c #2C6EAF",
"9 	c #1E72B1",
"0 	c #2073B2",
"a 	c #2272B8",
"b 	c #2E70B1",
"c 	c #2274B3",
"d 	c #2475B4",
"e 	c #2F73AD",
"f 	c #2576B6",
"g 	c #2777B7",
"h 	c #2978B8",
"i 	c #2B79B9",
"j 	c #3776B8",
"k 	c #2C7CB5",
"l 	c #2E7BBB",
"m 	c #3879B4",
"n 	c #3A7AB5",
"o 	c #2F7EB7",
"p 	c #317DBD",
"q 	c #3B7BB6",
"r 	c #307FB9",
"s 	c #3280BA",
"t 	c #3E7DB9",
"u 	c #3481BB",
"v 	c #407FBB",
"w 	c #3683BD",
"x 	c #4180BC",
"y 	c #4283B8",
"z 	c #4384B9",
"A 	c #3A86C0",
"B 	c #4583BF",
"C 	c #4485BB",
"D 	c #3C87C1",
"E 	c #3D88C2",
"F 	c #4686BC",
"G 	c #4787BD",
"H 	c #4889BE",
"I 	c #5387BE",
"J 	c #428CC7",
"K 	c #4A8BC0",
"L 	c #528ABA",
"M 	c #4C8CC1",
"N 	c #568AC1",
"O 	c #4D8DC2",
"P 	c #4E8EC3",
"Q 	c #4E91C0",
"R 	c #578FBF",
"S 	c #5990C1",
"T 	c #5392C8",
"U 	c #5294C3",
"V 	c #5B92C3",
"W 	c #5395C4",
"X 	c #5C93C4",
"Y 	c #5D94C5",
"Z 	c #5F95C6",
"` 	c #6096C7",
" .	c #5799C8",
"..	c #6696C2",
"+.	c #6197C8",
"@.	c #639ACB",
"#.	c #6999C5",
"$.	c #639DC7",
"%.	c #659CCD",
"&.	c #649EC8",
"*.	c #669DCE",
"=.	c #6C9CC8",
"-.	c #659FC9",
";.	c #6E9DC9",
">.	c #6F9ECA",
",.	c #67A1CB",
"'.	c #70A0CC",
").	c #6BA1D2",
"!.	c #69A3CE",
"~.	c #78A2C9",
"{.	c #73A3CF",
"].	c #72A5CA",
"^.	c #75A5D1",
"/.	c #7CA5CC",
"(.	c #75A8CD",
"_.	c #83A4CC",
":.	c #71AAD5",
"<.	c #7EA7CF",
"[.	c #77AAD0",
"}.	c #7FA9D0",
"|.	c #78ABD1",
"1.	c #7DABCB",
"2.	c #81ABD2",
"3.	c #86ABCD",
"4.	c #88ACCE",
"5.	c #83ADD4",
"6.	c #7CAFD5",
"7.	c #7DB0D6",
"8.	c #89AECF",
"9.	c #85AFD6",
"0.	c #8AAFD0",
"a.	c #86B0D7",
"b.	c #8BB0D2",
"c.	c #87B1D8",
"d.	c #8AB2CD",
"e.	c #86B3D4",
"f.	c #8DB2D4",
"g.	c #87B4D5",
"h.	c #89B3DA",
"i.	c #8EB3D5",
"j.	c #8FB4D6",
"k.	c #8DB6D0",
"l.	c #94B4D0",
"m.	c #8AB7D7",
"n.	c #91B5D7",
"o.	c #90B8D3",
"p.	c #93B7D9",
"q.	c #97B7D3",
"r.	c #91B9D4",
"s.	c #99B9D5",
"t.	c #92BBD6",
"u.	c #8EBCDC",
"v.	c #96BADD",
"w.	c #93BCD7",
"x.	c #9ABAD7",
"y.	c #94BDD8",
"z.	c #95BED9",
"A.	c #9CBCD9",
"B.	c #A0BCD3",
"C.	c #96BFDA",
"D.	c #9DBDDA",
"E.	c #9FBFDC",
"F.	c #99C2DD",
"G.	c #9EC2D7",
"H.	c #A1C1DE",
"I.	c #A6C2D9",
"J.	c #A0C4DA",
"K.	c #A3C3E0",
"L.	c #A8C3DB",
"M.	c #AAC2E1",
"N.	c #A2C6DC",
"O.	c #A9C4DC",
"P.	c #A6C6E3",
"Q.	c #A4C8DE",
"R.	c #A7C7E4",
"S.	c #A8C8E5",
"T.	c #ACC8DF",
"U.	c #A9C9E6",
"V.	c #AECAE1",
"W.	c #AFCBE3",
"X.	c #B0CCE4",
"Y.	c #B5CCDE",
"Z.	c #B1CDE5",
"`.	c #B6CEE0",
" +	c #BDCCE0",
".+	c #B4CFE7",
"++	c #B7CFE1",
"@+	c #B9D1E3",
"#+	c #B3D3E3",
"$+	c #BBD3E5",
"%+	c #C0D4E1",
"&+	c #BDD5E7",
"*+	c #C7D3E1",
"=+	c #BED6E8",
"-+	c #C0D8EA",
";+	c #C7D6EA",
">+	c #C2DAEC",
",+	c #C9D8EC",
"'+	c #CCD8E6",
")+	c #C6DAE6",
"!+	c #C7DBE7",
"~+	c #C4DCEE",
"{+	c #C8DCE8",
"]+	c #CBDBEE",
"^+	c #C9DDE9",
"/+	c #CEDEE5",
"(+	c #D0DDEB",
"_+	c #CBDFEB",
":+	c #D0E0E7",
"<+	c #D3DFED",
"[+	c #D7E0E8",
"}+	c #D1E2E8",
"|+	c #D5E1EF",
"1+	c #D6E2F1",
"2+	c #D3E4EA",
"3+	c #D8E4F3",
"4+	c #D2E6F2",
"5+	c #D5E6EC",
"6+	c #D9E5F4",
"7+	c #D3E7F4",
"8+	c #D6E7ED",
"9+	c #DDE6EE",
"0+	c #DAE7F5",
"a+	c #DFE7F0",
"b+	c #DEEBEC",
"c+	c #E2EAF3",
"d+	c #DCECF3",
"e+	c #DFECED",
"f+	c #E3ECF4",
"g+	c #E4EDF5",
"h+	c #E2F0F0",
"i+	c #E9EEF0",
"j+	c #E7EFF8",
"k+	c #E3F1F1",
"l+	c #EBF0F3",
"m+	c #EDF2F5",
"n+	c #EAF3FB",
"o+	c #EEF3F6",
"p+	c #E8F5F6",
"q+	c #F2F4F1",
"r+	c #EFF5F7",
"s+	c #F3F5F2",
"t+	c #F0F6F8",
"u+	c #F2F7F9",
"v+	c #F3F8FB",
"w+	c #F6F8F4",
"x+	c #F4F9FC",
"y+	c #F7F9F6",
"z+	c #F5FAFD",
"A+	c #F9FBF8",
"B+	c #F7FDFF",
"C+	c #FFFCFA",
"D+	c #FCFEFA",
"E+	c #F9FFFF",
"F+	c #FFFFF6",
"G+	c #FEFFFC",
"' ' ' ' ' ' ' ' ' ' ' ' ' ; _ c ..~.[ & > > > > > > > > > ' ' ' ' ' ' ' ' ' ' ' ' ' ' ' ' ' ' ' ",
"' ' ' ' ' ' ' ' ' ' ' ' ' ; _ 9 1.Y.S 4 $ ; ; ; ; ; ; > > ' ' ' ' ' ' ' ' ' ' ' ' ' ' ' ' ' ' ' ",
"' ' ' ' ' ' ' ' ' ' ' ' ' ; ' 8 o.b+1.n ; ' ' ' _ _ _ / / > > ' ' ' ' ' ' ' ' ' ' ' ' ' ' ' ' ' ",
"' ' ' ' ' ' ' ' ' ' ' ' ' ; ' 4 >.D.G c 8 a a a 0 e 6 { / > > ' ' ' ' ' ' ' ' ' ' ' ' ' ' ' ' ' ",
"' ' ' ' ' ' ' ' ' ' ' > > $ 0 9.a.V 2 F 0.A.D.A.C.G.k.k ) > > ' ' ' ' ' ' ' ' ' ' ' ' ' ' ' ' ' ",
"' ' ' ' ' ' ' ' ' ' ' > = 8 V [+p.7 & ;.a+A+G+G+F+G+k+K ~ ; > ' ' ' ' ' ' ' ' ' ' ' ' ' ' ' ' ' ",
"' ' ' ' ' ' ' ' ' ' ' ; & ;.%+k.F = & &._+:+m+G+h+q+2+G < ; > ' ' ' ' ' ' ' ' ' ' ' ' ' ' ' ' ' ",
"' ' ' ' ' ' ' ' ' ' = _ t l. +G ( $ & &.}+f+v+G+t+A+5+G { ; > ' ' ' ' ' ' ' ' ' ' ' ' ' ' ' ' ' ",
"' ' ' ' ' ' ' ' > > $ 9 4.q.>.( & ; & &.8+D+G+G+G+G+e+G _ ; > ' ' ' ' ' ' ' ' ' ' ' ' ' ' ' ' ' ",
"' ' ' ' ' ' ' ' > ; ( G V./.{ > ; ; & $.5+A+G+D+C+G+d+G _ ; > ' ' ' ' ' ' ' ' ' ' ' ' ' ' ' ' ' ",
"' ' ' ' ' ' ' ' > > ~ u K.^.2 $ & , ] O o.I.O.L.L.T.w.D [ ; > ' ' ' ' ' ' ' ' ' ' ' ' ' ' ' ' ' ",
"' ' ' ' ' ' ' ' > > $ 8 _.2.+.r 9 b s V ].].].].].].].).v $ ; > > > ' ' ' ' ' ' ' ' ' ' ' ' ' ' ",
"' ' ' ' ' ' ' ' > > = ( L d.@+<+V.h.y.)+r+m+m+m+m+m+o+z+|.  # $ ; > ' ' ' ' ' ' ' ' ' ' ' ' ' ' ",
"' ' ' ' ' ' ' ' ' ' ; _ 9 G >.f.n.p.Q.d+G+G+G+G+G+G+G+G+p.2 >.O } $ = ' ' ' ' ' ' ' ' ' ' ' ' ' ",
"' ' ' ' ' ' ' ' ' ' ' > ; $ & ' n #.y.4+G+G+G+G+G+G+G+G+n.n ++D.I 4 ' > > ' ' ' ' ' ' ' ' ' ' ' ",
"' ' ' ' ' ' ' ' ' ' ' > > > ; > = d c.1+G+G+G+G+G+G+G+G+9.> T T.(+^.i $ > ' ' ' ' ' ' ' ' ' ' ' ",
"' ' ' ' ' ' ' ' ' ' ' ' ' ' > > # [ c.0+G+G+G+G+G+G+G+G+h.# 4 Z s.P.@.{ ' > ' ' ' ' ' ' ' ' ' ' ",
"' ' ' ' ' ' ' ' ' ' ' ' ' ' ' ' & 2 <.^+B+z+x+x+x+x+z+B+5.# $ $ h D.n.M ( = ' ' ' ' ' ' ' ' ' ' ",
"' ' ' ' ' ' ' ' ' ' ' ' ' ' ' ' $ ( J p.,+=+=+=+=+-+$+K.P , ; = ~ n s.&+d & ' ' ' ' ' ' ' ' ' ' ",
"' ' ' ' ' ' ' ' ' ' ' ' ' ' ' ' ; _ 4 a.f+0+6+6+6+f+^+*.f = > , [ ;.q.8.4 & ' ' ' ' ' ' ' ' ' ' ",
"' ' ' ' ' ' ' ' ' ' ' ' ' ' ' ' > ; + n.G+G+G+G+G+G+n+V [ = = [ N .+|.3 / > ' ' ' ' ' ' ' ' ' ' ",
"' ' ' ' ' ' ' ' ' ' ' ' ' ' ' ' > ; + n.G+G+G+G+G+G+o+6.n , @ ;.*+z.K = > > ' ' ' ' ' ' ' ' ' ' ",
"' ' ' ' ' ' ' ' ' ' ' ' ' ' ' ' > ; + n.G+G+G+G+G+G+r+m.n ] %.I.T.S 4 $ > ' ' ' ' ' ' ' ' ' ' ' ",
"' ' ' ' ' ' ' ' ' ' ' ' ' ' ' ' > ; + n.G+G+G+G+G+G+r+r.C t Y.O.Z < & ' ' ' ' ' ' ' ' ' ' ' ' ' ",
"' ' ' ' ' ' ' ' ' ' ' ' ' ' ' ' > ; + n.G+G+G+G+G+G+u+G.D.M.<.B { > > ' ' ' ' ' ' ' ' ' ' ' ' ' ",
"' ' ' ' ' ' ' ' ' ' ' ' ' ' ' ' > ; + e.G+G+G+G+G+G+z+'+1+<+Z 2 & > ' ' ' ' ' ' ' ' ' ' ' ' ' ' ",
"' ' ' ' ' ' ' ' ' ' ' ' ' ' ' ' > ; $ <.l+3+|+|+|+1+1+;+]+V.C { ; > ' ' ' ' ' ' ' ' ' ' ' ' ' ' ",
"' ' ' ' ' ' ' ' ' ' ' ' ' ' ' ' ' > + S i.E g f f w O N M y : > > > ' ' ' ' ' ' ' ' ' ' ' ' ' ' ",
"' ' ' ' ' ' ' ' ' ' ' ' ' ' ' ' $ _ x s.++w $ . )  .v.+.i / ; ; ' ' ' ' ' ' ' ' ' ' ' ' ' ' ' ' ",
"' ' ' ' ' ' ' ' ' ' ' ' ' ' > > $ c n.c+e+V : ' g V.G+y.w & > ' ' ' ' ' ' ' ' ' ' ' ' ' ' ' ' ' ",
"' ' ' ' ' ' ' ' ' ' ' ' ' ' > = [ U b+9+f.c , ' g S.G+r.w $ > ' ' ' ' ' ' ' ' ' ' ' ' ' ' ' ' ' ",
"' ' ' ' ' ' ' ' ' ' ' ' ' > > ; S Y.m+E.l ' & < g R.B+r.w $ > ' ' ' ' ' ' ' ' ' ' ' ' ' ' ' ' ' ",
"' ' ' ' ' ' ' ' ' ' ' ' ' ; ' 4 s.y+'+V   ; ; < g R.B+r.w $ > ' ' ' ' ' ' ' ' ' ' ' ' ' ' ' ' ' ",
"' ' ' ' ' ' ' ' ' ' ' ' ' $ ( S $+p+(.d & ; ; < g R.B+r.w $ > ' ' ' ' ' ' ' ' ' ' ' ' ' ' ' ' ' ",
"' ' ' ' ' ' ' ' ' ' ' ' ' ; < n k.}+V.{.n = & ' g U.G+w.w , > ' ' ' ' ' ' ' ' ' ' ' ' ' ' ' ' ' ",
"' ' ' ' ' ' ' ' ' ' ' ' ' ' ; & y B.i+(+4.s { < f K.u+m.u $ > ' ' ' ' ' ' ' ' ' ' ' ' ' ' ' ' ' ",
"' ' ' ' ' ' ' ' ' ' ' ' ' ' > ; _ o s.9+s+)+;.2 6 |.&+!.i = > ' ' ' ' ' ' ' ' ' ' ' ' ' ' ' ' ' ",
"' ' ' ' ' ' ' ' ' ' ' ' ' ' ' ' $ / w 0./+w+<+a.A i.<+[.n $ > ' ' ' ' ' ' ' ' ' ' ' ' ' ' ' ' ' ",
"' ' ' ' ' ' ' ' ' ' ' ' ' ' ' ' ' ; & 0 -.!+v+a+@.H.j+e.u $ > ' ' ' ' ' ' ' ' ' ' ' ' ' ' ' ' ' ",
"' ' ' ' ' ' ' ' ' ' ' ' ' ' ' ' ' > ; ' 2 s 5.T.` u.~+:.p $ > ' ' ' ' ' ' ' ' ' ' ' ' ' ' ' ' ' ",
"' ' ' ' ' ' ' ' ' ' ' ' ' ' ' ' ' ' ' $ $ 1 4.<+N.>+7+7.s $ > ' ' ' ' ' ' ' ' ' ' ' ' ' ' ' ' ' ",
"' ' ' ' ' ' ' ' ' ' ' ' ' ' ' ' ' > > = [ Q `.D+8+u+x+r.w , > ' ' ' ' ' ' ' ' ' ' ' ' ' ' ' ' ' ",
"' ' ' ' ' ' ' ' ' ' ' ' ' ' ' ' ' > > / w >+o+9+E.<+x+r.w , > ' ' ' ' ' ' ' ' ' ' ' ' ' ' ' ' ' ",
"' ' ' ' ' ' ' ' ' ' ' ' ' ' ' ' ' > > = l Z.V.2.<.{+x+g.n # ; ' ' ' ' ' ' ' ' ' ' ' ' ' ' ' ' ' ",
"' ' ' ' ' ' ' ' ' ' ' ' ' ' ' ' ' ' ' , : #.I j &.{+B+F.O { ' > ' ' ' ' ' ' ' ' ' ' ' ' ' ' ' ' ",
"' ' ' ' ' ' ' ' ' ' ' ' ' ' ' ' ' ' ' > ' : ' 2 &.!+G+t+#+,.[ $ ' ' ' ' ' ' ' ' ' ' ' ' ' ' ' ' ",
"' ' ' ' ' ' ' ' ' ' ' ' ' ' ' ' ' ' ' ' > $ & ( W T.g+g+@+{.2 $ ' ' ' ' ' ' ' ' ' ' ' ' ' ' ' ' ",
"' ' ' ' ' ' ' ' ' ' ' ' ' ' ' ' ' ' ' ' ' ' = ( K n.&+&+A.` : $ ' ' ' ' ' ' ' ' ' ' ' ' ' ' ' ' "};
